<svg version="1" xmlns="https://www.w3.org/2000/svg" width="933.333" height="933.333" viewBox="0 0 700.000000 700.000000"><path d="M623.4 38.8c-6.4 1.7-18.7 7.5-21.9 10.5-14.2 13-19.6 21.7-23 36.8-.6 3.1-1.3 13.2-1.4 22.5-.1 9.3-.5 17.2-.9 17.5-.4.4-4.7 1.9-9.7 3.4-4.9 1.5-11.5 3.5-14.5 4.5-7 2.3-44.6 14.3-56.5 18-8.9 2.8-81.7 25.9-103 32.7-6 1.9-14.4 4.5-18.5 5.8-11.7 3.6-25.4 8-39 12.3-6.9 2.2-19.9 6.4-29 9.2-9.1 2.9-18.5 5.9-21 6.7-5.5 1.8-58.1 18.5-70.5 22.3-4.9 1.6-11.7 3.7-15 4.8-3.3 1.1-13.4 4.3-22.5 7.2-9.1 2.8-17.6 5.5-19 6.1-1.4.5-3.4 1.1-4.5 1.4-1.1.2-13.9 4.2-28.5 8.9S98.3 278 98 278c-.3 0-.7-1.6-.8-3.6-.8-11-10.3-25.5-21.8-33-28-18.1-65.2-3.2-73.9 29.7-2.1 7.9-2.1 151.1-.1 158 3.9 13 10.8 22.5 21.3 29.5 7.8 5.2 16.1 7.6 25.8 7.6 13.8 0 24-4 34.1-13.4 7-6.6 13-17.2 14-25.1.4-2.6 1-4.9 1.3-5.1.3-.2 2.4.2 4.6.9 2.2.7 11.3 3.6 20.3 6.4l16.3 5.2-4.3 4.8c-16.7 18.5-15.5 47.5 2.7 65.7 6.7 6.8 13.7 10.7 26 14.7 47 15.1 71.9 23.2 76.5 24.7 5.5 1.8 48.7 15.8 77.5 25.1 20.7 6.6 22.7 7.1 30.8 6.8 21.6-.7 38.6-13.7 45.7-34.9 1.9-5.5 2.2-8 1.7-16.2l-.5-9.6 4.1 1.3c8.1 2.6 51.4 16.4 69.2 22 9.9 3.1 19.1 6 20.5 6.5 1.4.5 9.9 3.2 19 6s26.9 8.5 39.5 12.5c12.7 4.1 24.2 7.7 25.8 8.1 1.5.3 2.9.9 3.1 1.3.3.4.6 8.5.7 18.1.3 18.4.7 21.9 4.3 31.9 5.8 15.9 21.7 30.9 38.6 36.2 8.3 2.7 22.1 3.5 30.3 1.9 21.4-4.2 39.6-20.4 47-42l2.2-6.5.3-258.5c.2-183.7 0-260.8-.8-266.5-2-14.6-11.7-30.5-24.3-39.9-4.3-3.2-16.9-9.2-21.3-10.1-7.5-1.6-23-1.5-30 .3zm25.4 24.3c14.1 4.5 24.3 16.4 26 30.2.4 2.9.7 119.5.6 259.2-.1 284.1.6 259.6-7.3 270.6-16.5 23-51.6 19.2-63.1-6.8-1.1-2.4-2.2-6-2.6-8-.4-2-.7-118.6-.7-259.2 0-283.8-.5-260.5 6.7-271.4 8.6-13 26.1-19.3 40.4-14.6zm-71.8 287c0 158.1-.3 198-1.2 197.7-.7-.3-8.7-2.9-17.8-5.7-9.1-2.9-25.5-8.1-36.5-11.6s-29.4-9.3-41-13c-11.5-3.6-22.1-7-23.5-7.5-1.4-.5-10.6-3.4-20.5-6.5s-27.9-8.8-40-12.7c-29.3-9.3-39.9-12.6-59.5-18.8-9.1-2.9-23.2-7.4-31.5-10-8.2-2.7-18.6-6-23-7.4-4.4-1.3-22.4-7-40-12.6s-36.2-11.5-41.3-13.1c-23.6-7.4-39.3-12.4-61.5-19.5-6.1-2-12.5-4-14.2-4.4-1.6-.5-8.4-2.6-15-4.7l-12-3.9V303.7l14-4.4c7.7-2.5 21.9-6.9 31.5-10 9.6-3 20-6.3 23-7.3s13.6-4.4 23.5-7.5c9.9-3.1 23.5-7.4 30.1-9.6 20.7-6.6 34.7-11.1 39.4-12.4 2.5-.7 16-5 30-9.5 14-4.4 33.4-10.6 43-13.6 9.6-3.1 20-6.4 23-7.4s12.3-3.9 20.5-6.5c8.3-2.6 21.1-6.6 28.5-9 7.4-2.4 17.1-5.4 21.5-6.8 14.6-4.6 43.8-13.8 57.5-18.2 7.4-2.4 22.7-7.3 34-10.9 11.3-3.5 28.8-9.1 39-12.4 10.2-3.3 18.8-6.1 19.3-6.1.4-.1.7 89 .7 198zM60.5 261c2.2 1.2 5.4 3.8 7.1 5.8 6.2 6.8 6.1 5.3 5.9 84.6-.1 69.5-.2 72.2-2 76.1-2.2 4.5-7.5 9.9-12 12.3-4.2 2.3-15.9 2.2-20.7-.1-5-2.4-9.7-7.3-12.1-12.7-2-4.4-2.1-6.5-2.1-77 0-70.9.1-72.6 2.1-77 3-6.7 7.9-11.3 14.8-13.8 4.6-1.8 14.4-.8 19 1.8zm126.6 189.4c11.6 3.8 36.8 12 78.4 25.4 15.4 5 31.2 10.1 35 11.3 3.9 1.3 7.2 2.4 7.5 2.4.3.1 1.2.4 2 .8.8.3 12.3 4 25.4 8.2 23.4 7.6 24 7.8 28.7 12.5 12.9 12.9 8 34.2-9.1 40-6.3 2.1-11 1.8-21-1.5-4.1-1.3-21.7-6.9-39-12.5s-32.4-10.5-33.5-10.9c-1.1-.5-3.6-1.3-5.5-1.9-1.9-.6-11.8-3.7-22-7s-30-9.7-44-14.2-27.5-9.3-30-10.7c-5.7-3.1-8.9-7.1-11.1-14-3.9-11.6 1.4-23.7 12.6-28.9 7.1-3.3 13.1-3.1 25.6 1z"/></svg>