<svg version="1" xmlns="https://www.w3.org/2000/svg" width="933.333" height="933.333" viewBox="0 0 700.000000 700.000000"><path d="M236 59c-2.5.4-6.4 1-8.7 1.3-50.9 7.1-99.1 45.5-119.3 95.2-4 9.6-8.4 24.3-9.5 31.6-1.8 12.1-2.2 18-2.1 31.5l.2 15-8.1 3.8c-4.5 2-11.9 6.1-16.4 9.1-40.2 26.3-64.5 65.1-71 113.5-.9 6.9-.8 34.8.2 39 .4 1.4.9 4.3 1.2 6.4.8 6 4.2 18.8 7.2 26.8 17 47.4 57.9 84.8 106.8 97.8 21.2 5.7 9.2 5.4 228.5 5.4 203.7-.1 213.7-.1 220-1.5 1.9-.4 5.4-1 7.8-1.3 2.4-.3 4.7-.8 5.1-1 .4-.3 1.9-.7 3.4-1 5.8-1 24.6-8.1 32.4-12.1 44-22.8 73.8-62.4 83.5-110.8 2.5-12.9 3.1-37.5 1.1-50.9-5.2-35.2-20.5-65.4-46.1-90.5-19.1-18.7-44.5-33.2-69.7-39.7-15.4-3.9-35.2-5.8-48.7-4.6l-6.7.5-4.2-5.2c-2.3-2.9-7.7-8.6-11.9-12.7-25.8-24.7-57.1-39-94.5-43.1-1.1-.1-5.2-.3-9.1-.4l-7.2-.1-2.3-5.8c-1.9-4.9-5.9-12.8-10.3-20.7-1.5-2.6-9.7-14.7-11-16.2-.6-.6-4.5-4.9-8.6-9.5-23.2-25.8-55.5-42.9-93-49.3-5.4-.9-34-1.3-39-.5zm34.5 33.4c16.8 2.4 35.6 9.6 50 19.2 4.4 2.9 9.4 6.5 11 7.9 11.1 9.8 17.9 17.3 23.8 26.2 9.8 15 13.2 23.2 20.4 48.7.4 1.6 1.1 1.7 5.7 1.1 7.9-1.1 29.5-1.4 35.6-.5 10.8 1.6 13.2 2.2 21.1 4.5 26 7.8 48.8 24.1 65.1 46.5 3 4.2 6.1 8.6 6.7 9.9 1.1 2.1 1.8 2.2 5.4 1.7 31.4-5.1 52.6-3 77.2 7.6 26.1 11.3 48.5 32.7 61.7 59.3 6.1 12.2 9.4 23.4 11.7 39.6.9 6.6.8 30-.2 31.6-.3.5-.8 2.9-1.1 5.3-1.1 8.8-5.5 21.9-11.4 33.5-10.7 21.4-30.6 41.8-51.6 52.9-8.1 4.3-20.5 9.1-28.1 11-16.5 4-14.4 3.9-218.5 4-108.6.1-201.5-.2-206.5-.6-48.8-3.6-90.1-34.5-107.4-80.3-11.8-31.2-9.9-68.4 5-98 6.5-12.9 12.7-21.3 23.4-32.1 15.4-15.6 29.8-24.2 53.5-31.9 6.3-2.1 11.6-3.9 11.8-4 .2-.2-.1-2-.7-4.1-.6-2.2-1.3-5.3-1.5-6.9-.3-1.7-.8-4.1-1.1-5.5-2-9.5-2.6-30.4-1.1-41 4.7-34.1 24.9-66.4 53.5-85.4 16.8-11.2 32.3-17.1 53.6-20.4 5.9-.9 25.9-.8 33 .2zM316.7 559.9c-.2.3-.3 7.9-.2 16.8l.1 16.3h-34.3l.1 6.5c0 3.6-.3 6.6-.9 6.8-.5.2-29.9.3-65.3.3-42.1-.1-64.2.2-64.3.9-.4 5.1-.3 23 .2 24.3.6 1.6 5.2 1.7 64.5 1.8 35.1.1 64.4.2 64.9.3.6 0 1 1.8 1 3.8v3.8l58.8.3 58.8.2-.4-4c-.2-2.4 0-4 .7-4.1.6-.1 24.5-.2 53.1-.3l52-.1.1-13.3c.1-11.5-.1-13.2-1.5-13.3-.9-.1-24.3-.2-52.1-.4-27.8-.1-51-.3-51.5-.4-.6 0-1-2.9-.9-6.6l.2-6.5h-34.4l.1-15.8c.1-8.6-.1-16.2-.3-16.9-.3-.9-6.7-1.1-24.3-1.1-13.2.1-24.1.4-24.2.7z"/></svg>