<svg version="1" xmlns="https://www.w3.org/2000/svg" width="933.333" height="933.333" viewBox="0 0 700.000000 700.000000"><path d="M329.8.4c-.1.2-4.1.6-8.8.9-13.2.9-26.8 2.9-45.1 6.7-16.4 3.3-46.7 12.6-58.6 18.1-2.4 1-4.5 1.9-4.8 1.9-.2 0-7 3.2-15.1 7-41.5 20-80.9 49.9-109.9 83.5-3.3 3.9-6.3 7.2-6.6 7.5-2.7 2.4-25.9 34.1-25.9 35.5 0 .2-1.3 2.3-2.9 4.7-7.4 11.1-21.3 38.7-27.4 54.3-3.3 8.5-9.5 27.2-13 39.5-2.4 8.1-7.2 32.5-8.3 42-.3 2.5-.7 5.6-1 7-2.5 14.6-2.5 71.9.1 82 .2.8.6 4.2 1 7.5.3 3.3.8 6.7 1 7.5.3.8.7 3.2.9 5.2 1 7.6 7.7 34.8 11.6 46.5 24.8 75.9 71.7 137.9 138.8 183.6 4.6 3.2 8.5 5.7 8.7 5.7.3 0 2.9 1.6 5.9 3.5 6.1 3.9 32.2 17.4 37.6 19.5 1.9.8 5.8 2.3 8.5 3.5 11.2 5 31.8 11.8 45 15.1 4.7 1.1 15.4 3.7 17 4 25.7 5.3 42.6 6.9 71.5 6.9 18.1 0 32.2-.7 42.8-2.1 29.4-3.7 68-13.8 89.9-23.5 2.3-1.1 4.5-1.9 4.8-1.9 1.4 0 27.9-13.3 37-18.5 53.7-30.9 100.1-77.6 130.2-131 5.5-9.6 16.7-33.2 20.6-43 10.6-27.2 19.3-61.5 22.3-88.5.4-3.6.9-7.4 1.1-8.5.7-4.5.9-50.7.3-59-1.2-13.5-2.8-27.4-3.5-28.5-.1-.3-.6-2.8-.9-5.5-.7-5.4-5.2-26.1-6.6-31-6.5-21.3-9.2-29.5-12.1-36-.4-1.1-2.7-6.5-4.9-12-9.6-23.5-28.3-54.9-45.8-76.9C589.3 88.4 542.4 52 492 30c-4.1-1.8-8.4-3.6-9.5-4.1-16.3-7.1-51.9-17.4-70.2-20.3-3.3-.5-11.6-1.9-12.3-2.1-.3-.1-4.1-.5-8.5-1-4.4-.4-8.9-1-10-1.2-2.6-.4-51.2-1.3-51.7-.9zm50.7 55c1.7.2 5 .7 7.5 1 85.7 11.3 160.6 58.1 209.1 130.6 9.3 14 22.4 39.1 28.6 55 9.2 23.6 15.3 48.7 18.9 78 .9 7.3 1.1 49.8.3 56.5-.5 3.8-1.1 8.8-1.3 11.1-.3 2.2-1.2 8.3-2.1 13.5-8.5 48.9-28.8 94.1-60.3 133.9-9.7 12.2-34 36.5-46.2 46.2-20.8 16.4-49.5 33.4-70.5 41.8-4.4 1.8-8.9 3.6-10 4.1-3.4 1.5-16.5 5.7-26 8.2-12.1 3.3-23.1 5.6-34.4 7.3-2.5.4-5.5.8-6.6 1-9.3 1.9-50.2 2.6-64.5 1.1-12.6-1.2-24.7-3.1-34.5-5.3-3.3-.7-7.1-1.5-8.5-1.8-9.1-1.8-31.1-9-44.8-14.7-25.9-10.7-57.5-30.2-77.7-47.8-9.4-8.3-31.7-31.3-38.6-40.1-32.8-41.4-54.4-90.7-61.4-140.5-.4-2.8-.9-5.9-1.1-7-2.5-13.5-2.5-61.2 0-75 .2-1.1.6-4.1 1-6.6 4.4-30.2 14-60.9 27.8-88.3 14.9-29.7 31.2-52.1 55.7-76.7 23.7-23.7 46.7-40.5 75.6-55.2 26.9-13.6 61-24.5 89-28.2 2.8-.4 6.1-.9 7.5-1.1 1.4-.3 6.1-.7 10.5-1 4.4-.4 8.2-.8 8.4-1 .5-.4 44.7.5 48.6 1z"/><path d="M252 215.4c-14.2 3-25.9 13.5-30.3 27.1-6.4 20 2.7 40.8 21.6 49.6 6.7 3.1 8 3.3 17.2 3.3 9.3 0 10.5-.2 16.9-3.2 15.6-7.6 23.8-21.3 23.3-39.1-.3-7.4-.8-9.5-3.6-15.3-8.5-17.2-26.7-26.2-45.1-22.4zM435.8 215.9c-20.3 5.1-33.8 25.9-30 46.2 5.2 27.9 35.9 42.3 60.3 28.4 18.9-10.7 26.2-36.5 15.4-55-9.5-16.4-27.6-24.2-45.7-19.6zM340 392.6c-1.4.2-5.9.9-10 1.5-53.5 7.7-101.6 42.7-122.7 89.4-3.9 8.6-4.7 12.5-3.3 17.4 3.3 12.3 16.5 18.6 27.6 13.2 5.3-2.6 6.6-4.2 12.5-15.7 6.7-13 12.6-21.2 21.8-30.5 30.6-30.5 76.7-42.9 121.6-32.9 14 3.2 34.3 12.5 46 21.2 15.2 11.3 27.6 26.4 37.4 45.4 4.3 8.3 7.1 11.2 13 13.2 8.3 2.9 17.3-.2 22.6-7.6 2.6-3.7 3-5.3 3-10.5 0-6.3-1.7-10.4-10.5-26.4-6.1-11.1-20.8-28.4-32.4-38.2-25.3-21.3-51.8-33.2-86.1-38.7-4-.6-37.3-1.3-40.5-.8z"/></svg>